<svg xmlns="http://www.w3.org/2000/svg" viewBox="0 0 109.18 20.39"><title>Asset 4</title><g id="Layer_2" data-name="Layer 2"><g id="Layer_1-2" data-name="Layer 1"><path d="M9,10A3,3,0,0,0,5.91,6.86,3,3,0,0,0,2.84,10,3.07,3.07,0,1,0,9,10Zm0,5.45V14A4.6,4.6,0,0,1,5.44,15.6,5.41,5.41,0,0,1,0,10,5.51,5.51,0,0,1,5.51,4.32,4.55,4.55,0,0,1,9,5.89V4.52h2.78V15.43Z"/><path d="M25.28,13c-1,0-1.24-.35-1.24-1.26V6.91h1.78V4.53H24V1.87H21.19V4.53H17.52V3.87c0-.92.36-1.27,1.36-1.27h.62V.48H18.13c-2.35,0-3.46.74-3.46,3v1H13.09V6.9h1.58v8.53h2.85V6.9h3.67v5.35c0,2.23.88,3.19,3.18,3.19h1.47V13Z"/><path d="M35.49,9a2.68,2.68,0,0,0-2.8-2.27A2.76,2.76,0,0,0,29.85,9Zm-5.67,1.7a2.78,2.78,0,0,0,2.91,2.53,3,3,0,0,0,2.67-1.42h2.91c-.68,2.31-2.82,3.8-5.65,3.8A5.46,5.46,0,0,1,26.86,10a5.61,5.61,0,0,1,5.87-5.67A5.55,5.55,0,0,1,38.53,10a3.2,3.2,0,0,1-.07.7Z"/><path d="M56.64,10a3.07,3.07,0,1,0-6.14,0,3.07,3.07,0,1,0,6.14,0Zm-9-5.46h2.78V5.94A4.55,4.55,0,0,1,54,4.33,5.45,5.45,0,0,1,59.48,10,5.51,5.51,0,0,1,54,15.61a4.46,4.46,0,0,1-3.41-1.46v5.78H47.69V4.52Z"/><path d="M69.49,10a3.07,3.07,0,1,0-6.14,0,3.07,3.07,0,1,0,6.14,0Zm0,5.45V14A4.6,4.6,0,0,1,66,15.6,5.41,5.41,0,0,1,60.51,10,5.51,5.51,0,0,1,66,4.32a4.55,4.55,0,0,1,3.5,1.57V4.52H72.3V15.43Z"/><path d="M42.69,5.59a2.82,2.82,0,0,1,2.44-1.26,2.86,2.86,0,0,1,1.22.25V7.36a3.7,3.7,0,0,0-2-.5A1.93,1.93,0,0,0,42.79,9v6.46H39.92V4.53H42.7V5.59Z"/><path d="M85.27,4.52l-7,15.36h-3l2.75-5.94L73.39,4.52h3.35l2.72,6.3,2.79-6.3Z"/><path d="M107.65,4.28,100.7.4A3.06,3.06,0,0,0,96.11,3v.4a1,1,0,0,0,.52.87L97.94,5a.58.58,0,0,0,.87-.48v-1a.67.67,0,0,1,1-.56l6,3.36a.63.63,0,0,1,0,1.11l-6,3.36a.67.67,0,0,1-1-.56V9.67a3.06,3.06,0,0,0-4.59-2.56l-7,3.88a2.91,2.91,0,0,0,0,5.12l7,3.88a3.06,3.06,0,0,0,4.59-2.56V17a1,1,0,0,0-.52-.87L97,15.43a.58.58,0,0,0-.87.48v1a.67.67,0,0,1-1,.56l-6-3.36a.63.63,0,0,1,0-1.11l6-3.36a.67.67,0,0,1,1,.56v.53a3.06,3.06,0,0,0,4.59,2.56l7-3.88A2.91,2.91,0,0,0,107.65,4.28Z"/></g></g></svg>